ffmpeg started on 2025-05-12 at 20:36:48
Report written to "D:\Convert\FFMetrics\reports\psnr_report-6.txt"
Log level: 32
Command line:
ffmpeg -hide_banner -nostdin -i "G:\\\xc0\xed\xe8\xec\xe5\\\xce\xed\xe3\xee\xe8\xed\xe3\xe8\\!_35_\xcb\xe5\xf2\xee_2024\\DreamCast-1\\\xcf\xf0\xe8\xea\xeb\xfe\xf7\xe5\xed\xe8\xff \xe2 \xe4\xf0\xf3\xe3\xee\xec \xec\xe8\xf0\xe5 - \xc2\xee\xf1\xef\xe8\xf2\xfb\xe2\xe0\xf2\xfc \xe4\xe5\xf2\xe5\xe9 \xe1\xf3\xe4\xf3\xf7\xe8 \xe0\xe2\xe0\xed\xf2\xfe\xf0\xe8\xf1\xf2\xee\xec\\[DC] Iseyuru - 02_Telegram_HEVC.mkv" -i "G:\\\xc0\xed\xe8\xec\xe5\\\xce\xed\xe3\xee\xe8\xed\xe3\xe8\\!_35_\xcb\xe5\xf2\xee_2024\\DreamCast-1\\\xcf\xf0\xe8\xea\xeb\xfe\xf7\xe5\xed\xe8\xff \xe2 \xe4\xf0\xf3\xe3\xee\xec \xec\xe8\xf0\xe5 - \xc2\xee\xf1\xef\xe8\xf2\xfb\xe2\xe0\xf2\xfc \xe4\xe5\xf2\xe5\xe9 \xe1\xf3\xe4\xf3\xf7\xe8 \xe0\xe2\xe0\xed\xf2\xfe\xf0\xe8\xf1\xf2\xee\xec\\[DC] Iseyuru - 02_Telegram.mp4" -lavfi "[0:v]settb=AVTB,setpts=PTS-STARTPTS,format=pix_fmts=yuv420p10,fps=24000/1001,scale=1920:1080:flags=bicubic[main];[1:v]settb=AVTB,setpts=PTS-STARTPTS,format=pix_fmts=yuv420p,fps=24000/1001,scale=1920:1080:flags=bicubic[ref];[main][ref]psnr=eof_action=endall:stats_file='D\\:/Convert/FFMetrics/logs/psnr_logfile-6.txt'" -f null -
Input #0, matroska,webm, from 'G:\Аниме\Онгоинги\!_35_Лето_2024\DreamCast-1\Приключения в другом мире - Воспитывать детей будучи авантюристом\[DC] Iseyuru - 02_Telegram_HEVC.mkv':
  Metadata:
    COMPATIBLE_BRANDS: isomiso2avc1mp41
    MAJOR_BRAND     : isom
    MINOR_VERSION   : 512
    ENCODER         : Lavf61.7.100
  Duration: 00:23:56.72, start: -0.021000, bitrate: 1118 kb/s
  Stream #0:0: Video: hevc (Main 10), yuv420p10le(tv, bt709, progressive), 1920x1080 [SAR 1:1 DAR 16:9], 23.98 fps, 23.98 tbr, 1k tbn (default)
      Metadata:
        HANDLER_NAME    : VideoHandler
        VENDOR_ID       : [0][0][0][0]
        ENCODER         : Lavc61.19.100 libx265
        BPS             : 920340
        DURATION        : 00:23:56.601708333
        NUMBER_OF_FRAMES: 34444
        NUMBER_OF_BYTES : 165270280
        _STATISTICS_WRITING_APP: mkvpropedit v66.0.0 ('Josie') 64-bit
        _STATISTICS_WRITING_DATE_UTC: 2025-05-10 12:40:26
        _STATISTICS_TAGS: BPS DURATION NUMBER_OF_FRAMES NUMBER_OF_BYTES
  Stream #0:1: Audio: aac (LC), 48000 Hz, stereo, fltp (default)
      Metadata:
        HANDLER_NAME    : SoundHandler
        VENDOR_ID       : [0][0][0][0]
        ENCODER         : Lavc61.19.100 aac
        BPS             : 193701
        DURATION        : 00:23:56.714000000
        NUMBER_OF_FRAMES: 67347
        NUMBER_OF_BYTES : 34786666
        _STATISTICS_WRITING_APP: mkvpropedit v66.0.0 ('Josie') 64-bit
        _STATISTICS_WRITING_DATE_UTC: 2025-05-10 12:40:26
        _STATISTICS_TAGS: BPS DURATION NUMBER_OF_FRAMES NUMBER_OF_BYTES
Input #1, mov,mp4,m4a,3gp,3g2,mj2, from 'G:\Аниме\Онгоинги\!_35_Лето_2024\DreamCast-1\Приключения в другом мире - Воспитывать детей будучи авантюристом\[DC] Iseyuru - 02_Telegram.mp4':
  Metadata:
    major_brand     : isom
    minor_version   : 512
    compatible_brands: isomiso2avc1mp41
    encoder         : Lavf60.16.100
  Duration: 00:23:56.67, start: 0.000000, bitrate: 3745 kb/s
  Stream #1:0[0x1](und): Video: h264 (High) (avc1 / 0x31637661), yuv420p(tv, bt709, progressive), 1920x1080 [SAR 1:1 DAR 16:9], 3597 kb/s, 23.98 fps, 23.98 tbr, 24k tbn (default)
      Metadata:
        handler_name    : VideoHandler
        vendor_id       : [0][0][0][0]
        encoder         : Lavc60.31.102 h264_qsv
  Stream #1:1[0x2](und): Audio: aac (HE-AACv2) (mp4a / 0x6134706D), 48000 Hz, stereo, fltp, 144 kb/s (default)
      Metadata:
        handler_name    : SoundHandler
        vendor_id       : [0][0][0][0]
Stream mapping:
  Stream #0:0 (hevc) -> settb:default
  Stream #1:0 (h264) -> settb:default
  psnr:default -> Stream #0:0 (wrapped_avframe)
  Stream #0:1 -> #0:1 (aac (native) -> pcm_s16le (native))
Output #0, null, to 'pipe:':
  Metadata:
    COMPATIBLE_BRANDS: isomiso2avc1mp41
    MAJOR_BRAND     : isom
    MINOR_VERSION   : 512
    encoder         : Lavf61.7.100
  Stream #0:0: Video: wrapped_avframe, yuv420p10le(tv, bt709, progressive), 1920x1080 [SAR 1:1 DAR 16:9], q=2-31, 200 kb/s, 23.98 fps, 23.98 tbn
      Metadata:
        encoder         : Lavc61.19.100 wrapped_avframe
  Stream #0:1: Audio: pcm_s16le, 48000 Hz, stereo, s16, 1536 kb/s (default)
      Metadata:
        HANDLER_NAME    : SoundHandler
        VENDOR_ID       : [0][0][0][0]
        _STATISTICS_TAGS: BPS DURATION NUMBER_OF_FRAMES NUMBER_OF_BYTES
        BPS             : 193701
        DURATION        : 00:23:56.714000000
        NUMBER_OF_FRAMES: 67347
        NUMBER_OF_BYTES : 34786666
        _STATISTICS_WRITING_APP: mkvpropedit v66.0.0 ('Josie') 64-bit
        _STATISTICS_WRITING_DATE_UTC: 2025-05-10 12:40:26
        encoder         : Lavc61.19.100 pcm_s16le
frame=  155 fps=0.0 q=-0.0 size=N/A time=00:00:06.46 bitrate=N/A speed=12.3x    frame=  363 fps=351 q=-0.0 size=N/A time=00:00:15.14 bitrate=N/A speed=14.6x    frame=  614 fps=394 q=-0.0 size=N/A time=00:00:25.60 bitrate=N/A speed=16.4x    frame=  842 fps=408 q=-0.0 size=N/A time=00:00:35.11 bitrate=N/A speed=  17x    frame= 1107 fps=428 q=-0.0 size=N/A time=00:00:46.17 bitrate=N/A speed=17.8x    frame= 1347 fps=434 q=-0.0 size=N/A time=00:00:56.18 bitrate=N/A speed=18.1x    frame= 1580 fps=438 q=-0.0 size=N/A time=00:01:05.89 bitrate=N/A speed=18.3x    frame= 1815 fps=439 q=-0.0 size=N/A time=00:01:15.70 bitrate=N/A speed=18.3x    frame= 2055 fps=442 q=-0.0 size=N/A time=00:01:25.71 bitrate=N/A speed=18.4x    frame= 2266 fps=439 q=-0.0 size=N/A time=00:01:34.51 bitrate=N/A speed=18.3x    frame= 2419 fps=426 q=-0.0 size=N/A time=00:01:40.89 bitrate=N/A speed=17.8x    frame= 2554 fps=412 q=-0.0 size=N/A time=00:01:46.52 bitrate=N/A speed=17.2x    frame= 2780 fps=413 q=-0.0 size=N/A time=00:01:55.94 bitrate=N/A speed=17.2x    frame= 3006 fps=416 q=-0.0 size=N/A time=00:02:05.37 bitrate=N/A speed=17.3x    frame= 3182 fps=410 q=-0.0 size=N/A time=00:02:12.71 bitrate=N/A speed=17.1x    frame= 3379 fps=409 q=-0.0 size=N/A time=00:02:20.93 bitrate=N/A speed=17.1x    frame= 3576 fps=407 q=-0.0 size=N/A time=00:02:29.14 bitrate=N/A speed=  17x    frame= 3789 fps=407 q=-0.0 size=N/A time=00:02:38.03 bitrate=N/A speed=  17x    frame= 3980 fps=405 q=-0.0 size=N/A time=00:02:45.99 bitrate=N/A speed=16.9x    frame= 4225 fps=409 q=-0.0 size=N/A time=00:02:56.21 bitrate=N/A speed=  17x    frame= 4474 fps=413 q=-0.0 size=N/A time=00:03:06.60 bitrate=N/A speed=17.2x    frame= 4715 fps=415 q=-0.0 size=N/A time=00:03:16.65 bitrate=N/A speed=17.3x    frame= 4957 fps=417 q=-0.0 size=N/A time=00:03:26.74 bitrate=N/A speed=17.4x    frame= 5211 fps=421 q=-0.0 size=N/A time=00:03:37.34 bitrate=N/A speed=17.5x    frame= 5454 fps=422 q=-0.0 size=N/A time=00:03:47.47 bitrate=N/A speed=17.6x    frame= 5691 fps=424 q=-0.0 size=N/A time=00:03:57.36 bitrate=N/A speed=17.7x    frame= 5946 fps=426 q=-0.0 size=N/A time=00:04:07.99 bitrate=N/A speed=17.8x    frame= 6179 fps=427 q=-0.0 size=N/A time=00:04:17.71 bitrate=N/A speed=17.8x    frame= 6433 fps=430 q=-0.0 size=N/A time=00:04:28.30 bitrate=N/A speed=17.9x    frame= 6674 fps=431 q=-0.0 size=N/A time=00:04:38.36 bitrate=N/A speed=  18x    frame= 6914 fps=432 q=-0.0 size=N/A time=00:04:48.37 bitrate=N/A speed=  18x    frame= 7147 fps=433 q=-0.0 size=N/A time=00:04:58.08 bitrate=N/A speed=  18x    frame= 7365 fps=432 q=-0.0 size=N/A time=00:05:07.18 bitrate=N/A speed=  18x    frame= 7584 fps=432 q=-0.0 size=N/A time=00:05:16.31 bitrate=N/A speed=  18x    frame= 7822 fps=433 q=-0.0 size=N/A time=00:05:26.24 bitrate=N/A speed=18.1x    frame= 8067 fps=434 q=-0.0 size=N/A time=00:05:36.46 bitrate=N/A speed=18.1x    frame= 8320 fps=435 q=-0.0 size=N/A time=00:05:47.01 bitrate=N/A speed=18.2x    frame= 8553 fps=436 q=-0.0 size=N/A time=00:05:56.73 bitrate=N/A speed=18.2x    frame= 8788 fps=437 q=-0.0 size=N/A time=00:06:06.53 bitrate=N/A speed=18.2x    frame= 9035 fps=438 q=-0.0 size=N/A time=00:06:16.83 bitrate=N/A speed=18.2x    frame= 9288 fps=439 q=-0.0 size=N/A time=00:06:27.38 bitrate=N/A speed=18.3x    frame= 9523 fps=439 q=-0.0 size=N/A time=00:06:37.18 bitrate=N/A speed=18.3x    frame= 9742 fps=439 q=-0.0 size=N/A time=00:06:46.32 bitrate=N/A speed=18.3x    frame= 9968 fps=439 q=-0.0 size=N/A time=00:06:55.74 bitrate=N/A speed=18.3x    frame=10213 fps=440 q=-0.0 size=N/A time=00:07:05.96 bitrate=N/A speed=18.3x    frame=10476 fps=441 q=-0.0 size=N/A time=00:07:16.93 bitrate=N/A speed=18.4x    frame=10720 fps=442 q=-0.0 size=N/A time=00:07:27.11 bitrate=N/A speed=18.4x    frame=10935 fps=441 q=-0.0 size=N/A time=00:07:36.08 bitrate=N/A speed=18.4x    frame=11145 fps=441 q=-0.0 size=N/A time=00:07:44.83 bitrate=N/A speed=18.4x    frame=11367 fps=440 q=-0.0 size=N/A time=00:07:54.09 bitrate=N/A speed=18.4x    frame=11606 fps=441 q=-0.0 size=N/A time=00:08:04.06 bitrate=N/A speed=18.4x    frame=11830 fps=441 q=-0.0 size=N/A time=00:08:13.40 bitrate=N/A speed=18.4x    frame=12072 fps=441 q=-0.0 size=N/A time=00:08:23.50 bitrate=N/A speed=18.4x    frame=12331 fps=442 q=-0.0 size=N/A time=00:08:34.30 bitrate=N/A speed=18.4x    frame=12565 fps=442 q=-0.0 size=N/A time=00:08:44.06 bitrate=N/A speed=18.5x    frame=12794 fps=442 q=-0.0 size=N/A time=00:08:53.61 bitrate=N/A speed=18.5x    frame=13004 fps=442 q=-0.0 size=N/A time=00:09:02.37 bitrate=N/A speed=18.4x    frame=13238 fps=442 q=-0.0 size=N/A time=00:09:12.13 bitrate=N/A speed=18.4x    frame=13453 fps=442 q=-0.0 size=N/A time=00:09:21.10 bitrate=N/A speed=18.4x    frame=13668 fps=441 q=-0.0 size=N/A time=00:09:30.06 bitrate=N/A speed=18.4x    frame=13892 fps=441 q=-0.0 size=N/A time=00:09:39.41 bitrate=N/A speed=18.4x    frame=14086 fps=440 q=-0.0 size=N/A time=00:09:47.50 bitrate=N/A speed=18.4x    frame=14310 fps=440 q=-0.0 size=N/A time=00:09:56.84 bitrate=N/A speed=18.3x    frame=14547 fps=440 q=-0.0 size=N/A time=00:10:06.73 bitrate=N/A speed=18.4x    frame=14804 fps=441 q=-0.0 size=N/A time=00:10:17.45 bitrate=N/A speed=18.4x    frame=15061 fps=442 q=-0.0 size=N/A time=00:10:28.16 bitrate=N/A speed=18.4x    frame=15285 fps=442 q=-0.0 size=N/A time=00:10:37.51 bitrate=N/A speed=18.4x    frame=15485 fps=441 q=-0.0 size=N/A time=00:10:45.85 bitrate=N/A speed=18.4x    frame=15678 fps=440 q=-0.0 size=N/A time=00:10:53.90 bitrate=N/A speed=18.4x    frame=15921 fps=441 q=-0.0 size=N/A time=00:11:04.03 bitrate=N/A speed=18.4x    frame=16157 fps=441 q=-0.0 size=N/A time=00:11:13.88 bitrate=N/A speed=18.4x    frame=16366 fps=440 q=-0.0 size=N/A time=00:11:22.59 bitrate=N/A speed=18.4x    frame=16579 fps=440 q=-0.0 size=N/A time=00:11:31.48 bitrate=N/A speed=18.4x    frame=16835 fps=441 q=-0.0 size=N/A time=00:11:42.15 bitrate=N/A speed=18.4x    frame=17073 fps=441 q=-0.0 size=N/A time=00:11:52.08 bitrate=N/A speed=18.4x    frame=17244 fps=439 q=-0.0 size=N/A time=00:11:59.21 bitrate=N/A speed=18.3x    frame=17447 fps=439 q=-0.0 size=N/A time=00:12:07.68 bitrate=N/A speed=18.3x    frame=17682 fps=439 q=-0.0 size=N/A time=00:12:17.48 bitrate=N/A speed=18.3x    frame=17899 fps=439 q=-0.0 size=N/A time=00:12:26.53 bitrate=N/A speed=18.3x    frame=18147 fps=439 q=-0.0 size=N/A time=00:12:36.88 bitrate=N/A speed=18.3x    frame=18366 fps=439 q=-0.0 size=N/A time=00:12:46.01 bitrate=N/A speed=18.3x    frame=18603 fps=439 q=-0.0 size=N/A time=00:12:55.90 bitrate=N/A speed=18.3x    frame=18845 fps=440 q=-0.0 size=N/A time=00:13:05.99 bitrate=N/A speed=18.3x    frame=18998 fps=438 q=-0.0 size=N/A time=00:13:12.37 bitrate=N/A speed=18.3x    frame=19221 fps=438 q=-0.0 size=N/A time=00:13:21.67 bitrate=N/A speed=18.3x    frame=19450 fps=438 q=-0.0 size=N/A time=00:13:31.22 bitrate=N/A speed=18.3x    frame=19672 fps=438 q=-0.0 size=N/A time=00:13:40.48 bitrate=N/A speed=18.3x    frame=19896 fps=438 q=-0.0 size=N/A time=00:13:49.82 bitrate=N/A speed=18.3x    frame=20132 fps=438 q=-0.0 size=N/A time=00:13:59.67 bitrate=N/A speed=18.3x    frame=20358 fps=438 q=-0.0 size=N/A time=00:14:09.09 bitrate=N/A speed=18.3x    frame=20579 fps=438 q=-0.0 size=N/A time=00:14:18.31 bitrate=N/A speed=18.3x    frame=20824 fps=438 q=-0.0 size=N/A time=00:14:28.53 bitrate=N/A speed=18.3x    frame=21062 fps=439 q=-0.0 size=N/A time=00:14:38.46 bitrate=N/A speed=18.3x    frame=21279 fps=438 q=-0.0 size=N/A time=00:14:47.51 bitrate=N/A speed=18.3x    frame=21495 fps=438 q=-0.0 size=N/A time=00:14:56.52 bitrate=N/A speed=18.3x    frame=21714 fps=438 q=-0.0 size=N/A time=00:15:05.65 bitrate=N/A speed=18.3x    frame=21912 fps=437 q=-0.0 size=N/A time=00:15:13.91 bitrate=N/A speed=18.2x    frame=22153 fps=438 q=-0.0 size=N/A time=00:15:23.96 bitrate=N/A speed=18.3x    frame=22378 fps=438 q=-0.0 size=N/A time=00:15:33.34 bitrate=N/A speed=18.3x    frame=22607 fps=438 q=-0.0 size=N/A time=00:15:42.90 bitrate=N/A speed=18.3x    frame=22847 fps=438 q=-0.0 size=N/A time=00:15:52.91 bitrate=N/A speed=18.3x    frame=23091 fps=438 q=-0.0 size=N/A time=00:16:03.08 bitrate=N/A speed=18.3x    frame=23308 fps=438 q=-0.0 size=N/A time=00:16:12.13 bitrate=N/A speed=18.3x    frame=23485 fps=437 q=-0.0 size=N/A time=00:16:19.52 bitrate=N/A speed=18.2x    frame=23666 fps=437 q=-0.0 size=N/A time=00:16:27.06 bitrate=N/A speed=18.2x    frame=23853 fps=436 q=-0.0 size=N/A time=00:16:34.86 bitrate=N/A speed=18.2x    frame=24096 fps=436 q=-0.0 size=N/A time=00:16:45.00 bitrate=N/A speed=18.2x    frame=24352 fps=437 q=-0.0 size=N/A time=00:16:55.68 bitrate=N/A speed=18.2x    frame=24596 fps=437 q=-0.0 size=N/A time=00:17:05.85 bitrate=N/A speed=18.2x    frame=24819 fps=437 q=-0.0 size=N/A time=00:17:15.15 bitrate=N/A speed=18.2x    frame=25071 fps=437 q=-0.0 size=N/A time=00:17:25.66 bitrate=N/A speed=18.2x    frame=25279 fps=437 q=-0.0 size=N/A time=00:17:34.34 bitrate=N/A speed=18.2x    frame=25530 fps=437 q=-0.0 size=N/A time=00:17:44.81 bitrate=N/A speed=18.2x    frame=25774 fps=438 q=-0.0 size=N/A time=00:17:54.99 bitrate=N/A speed=18.3x    frame=25984 fps=438 q=-0.0 size=N/A time=00:18:03.74 bitrate=N/A speed=18.3x    frame=26223 fps=438 q=-0.0 size=N/A time=00:18:13.71 bitrate=N/A speed=18.3x    frame=26444 fps=438 q=-0.0 size=N/A time=00:18:22.93 bitrate=N/A speed=18.3x    frame=26690 fps=438 q=-0.0 size=N/A time=00:18:33.19 bitrate=N/A speed=18.3x    frame=26939 fps=438 q=-0.0 size=N/A time=00:18:43.58 bitrate=N/A speed=18.3x    frame=27176 fps=439 q=-0.0 size=N/A time=00:18:53.46 bitrate=N/A speed=18.3x    frame=27422 fps=439 q=-0.0 size=N/A time=00:19:03.72 bitrate=N/A speed=18.3x    frame=27638 fps=439 q=-0.0 size=N/A time=00:19:12.73 bitrate=N/A speed=18.3x    frame=27890 fps=439 q=-0.0 size=N/A time=00:19:23.24 bitrate=N/A speed=18.3x    frame=28118 fps=439 q=-0.0 size=N/A time=00:19:32.75 bitrate=N/A speed=18.3x    frame=28354 fps=439 q=-0.0 size=N/A time=00:19:42.59 bitrate=N/A speed=18.3x    frame=28591 fps=440 q=-0.0 size=N/A time=00:19:52.48 bitrate=N/A speed=18.3x    frame=28852 fps=440 q=-0.0 size=N/A time=00:20:03.36 bitrate=N/A speed=18.4x    frame=29047 fps=440 q=-0.0 size=N/A time=00:20:11.50 bitrate=N/A speed=18.3x    frame=29278 fps=440 q=-0.0 size=N/A time=00:20:21.13 bitrate=N/A speed=18.3x    frame=29527 fps=440 q=-0.0 size=N/A time=00:20:31.52 bitrate=N/A speed=18.3x    frame=29773 fps=440 q=-0.0 size=N/A time=00:20:41.78 bitrate=N/A speed=18.4x    frame=30012 fps=440 q=-0.0 size=N/A time=00:20:51.75 bitrate=N/A speed=18.4x    frame=30263 fps=441 q=-0.0 size=N/A time=00:21:02.21 bitrate=N/A speed=18.4x    frame=30497 fps=441 q=-0.0 size=N/A time=00:21:11.97 bitrate=N/A speed=18.4x    frame=30742 fps=441 q=-0.0 size=N/A time=00:21:22.19 bitrate=N/A speed=18.4x    frame=30929 fps=441 q=-0.0 size=N/A time=00:21:29.99 bitrate=N/A speed=18.4x    frame=31177 fps=441 q=-0.0 size=N/A time=00:21:40.34 bitrate=N/A speed=18.4x    frame=31416 fps=441 q=-0.0 size=N/A time=00:21:50.30 bitrate=N/A speed=18.4x    frame=31635 fps=441 q=-0.0 size=N/A time=00:21:59.44 bitrate=N/A speed=18.4x    frame=31852 fps=441 q=-0.0 size=N/A time=00:22:08.49 bitrate=N/A speed=18.4x    frame=32064 fps=440 q=-0.0 size=N/A time=00:22:17.33 bitrate=N/A speed=18.4x    frame=32307 fps=441 q=-0.0 size=N/A time=00:22:27.47 bitrate=N/A speed=18.4x    frame=32542 fps=441 q=-0.0 size=N/A time=00:22:37.27 bitrate=N/A speed=18.4x    frame=32774 fps=441 q=-0.0 size=N/A time=00:22:46.94 bitrate=N/A speed=18.4x    frame=32975 fps=440 q=-0.0 size=N/A time=00:22:55.33 bitrate=N/A speed=18.4x    frame=33166 fps=440 q=-0.0 size=N/A time=00:23:03.29 bitrate=N/A speed=18.4x    frame=33374 fps=440 q=-0.0 size=N/A time=00:23:11.97 bitrate=N/A speed=18.3x    frame=33559 fps=439 q=-0.0 size=N/A time=00:23:19.68 bitrate=N/A speed=18.3x    frame=33758 fps=439 q=-0.0 size=N/A time=00:23:27.98 bitrate=N/A speed=18.3x    frame=33916 fps=438 q=-0.0 size=N/A time=00:23:34.57 bitrate=N/A speed=18.3x    frame=34130 fps=438 q=-0.0 size=N/A time=00:23:43.50 bitrate=N/A speed=18.3x    frame=34307 fps=437 q=-0.0 size=N/A time=00:23:50.88 bitrate=N/A speed=18.2x    [Parsed_psnr_10 @ 0000015a9f4a7480] PSNR y:49.029898 u:49.819418 v:50.012129 average:49.305279 min:42.168183 max:inf
[out#0/null @ 0000015a9d2343c0] video:14800KiB audio:269388KiB subtitle:0KiB other streams:0KiB global headers:0KiB muxing overhead: unknown
frame=34444 fps=437 q=-0.0 Lsize=N/A time=00:23:56.60 bitrate=N/A speed=18.2x    
